<svg width="247" height="90" viewBox="0 0 247 90" fill="none" xmlns="http://www.w3.org/2000/svg">
<path d="M141.464 32.7056H118.124C120.187 51.0297 120.2 69.5267 118.164 87.8539H141.52C139.651 69.5195 139.633 51.0437 141.464 32.7056Z" fill="black"/>
<path d="M246.695 56.2084C246.054 49.3155 243.57 43.18 238.222 38.4686C228.587 29.9901 210.231 29.3538 199.874 37.2011C192.188 43.0235 190.062 51.2799 189.83 60.2432C190.027 69.3327 192.077 77.5386 199.642 83.3609C204.187 86.8604 209.504 88.345 215.119 88.744C224.148 89.3853 232.632 87.8754 239.328 81.1946C246.276 74.2613 247.549 65.4646 246.695 56.2084ZM218.528 83.775H218.498C218.397 83.7821 218.295 83.7821 218.195 83.775C217.701 83.7029 217.232 83.5143 216.826 83.2246C216.46 83.0051 216.137 82.7211 215.872 82.3863C212.887 79.109 210.756 70.474 210.756 60.3391C210.756 50.2043 212.902 41.5086 215.902 38.2565C216.09 38.04 216.3 37.8436 216.528 37.6708C217.038 37.2149 217.677 36.929 218.356 36.8527H218.498H218.528C222.825 36.8527 226.304 47.3562 226.304 60.3088C226.304 73.2614 222.825 83.775 218.528 83.775Z" fill="black"/>
<path d="M113.464 56.3385C112.529 48.3397 109.666 41.3609 102.733 36.6445C97.4811 33.0743 91.5476 31.8522 85.2859 31.7462C71.1466 31.519 61.0471 39.0683 57.7547 52.4502C56.9215 55.8436 57.1538 56.3536 60.3452 58.116C64.9455 49.89 73.5806 49.3496 81.0492 51.7331C87.1846 53.6975 91.7698 58.212 91.6537 61.2166C89.4419 59.9137 87.1089 58.1211 84.4426 57.0556C79.807 55.1922 74.9037 55.3386 70.0357 56.2223C61.6834 57.7373 56.1893 63.6 56.0782 71.0737C55.9267 81.4964 60.118 87.0713 69.5812 89.0306C71.2981 89.3841 73.0302 89.682 74.7572 90.0001H80.8169C84.9527 89.177 89.0682 88.3186 91.886 83.9404V87.7682H115.024C114.519 77.6686 114.064 67.7509 113.59 57.8383C113.544 57.3484 113.524 56.8384 113.464 56.3385ZM88.8763 82.7134C88.7579 83.6352 88.2957 84.4782 87.5822 85.0737C86.8686 85.6693 85.9565 85.9733 85.0284 85.925H84.7709H84.5638C81.0694 85.925 78.2415 80.5773 78.2415 73.9773C78.2415 67.5186 80.9533 62.2568 84.3467 62.0397H84.4275C86.5837 61.8629 87.9623 63.1153 88.7501 64.8928C88.8309 65.0796 88.9167 65.2715 88.9975 65.4684C90.3033 68.1168 90.9528 71.0403 90.8912 73.9924C90.8659 77.4263 90.0933 80.5319 88.8763 82.7134Z" fill="black"/>
<path d="M192.002 33.1516C188.301 29.2026 179.847 28.829 175.974 33.0758C173.379 35.9138 171.546 39.5294 169.793 43.0137C168.48 45.6143 167.844 48.5684 166.905 51.3458L166.43 51.2499C166.678 47.3767 166.935 43.5086 167.183 39.6102C167.44 36.0222 168.137 32.4795 169.258 29.0613C170.773 24.2791 171.657 15.3613 162.547 5.72634C156.937 -0.202068 138.611 -1.5251 129.951 1.74714C118.841 5.97378 117.675 16.2904 117.675 16.2904C117.675 16.2904 117.675 16.4621 117.705 16.7601C117.735 17.058 117.675 17.265 117.675 17.5125C117.682 19.2759 118.087 21.0149 118.861 22.5995C119.635 24.184 120.757 25.573 122.144 26.6626C124.086 28.3627 126.567 29.3199 129.148 29.3642C129.38 29.3642 129.617 29.3642 129.85 29.3642C131.506 29.3694 133.146 29.0414 134.672 28.3997C138.147 27.2989 142.247 24.976 142.247 20.1383C142.247 11.7053 152.397 13.7151 152.397 18.7194C152.397 22.2542 151.326 24.2741 150.705 25.1325C150.397 25.5668 150.089 26.0062 149.822 26.4657C148.38 28.831 146.544 30.9319 144.393 32.6769C146.364 50.9995 146.374 69.4802 144.423 87.805H167.486C167.132 79.7254 166.91 71.8529 166.39 63.9752C166.112 59.8041 167.627 56.4259 170.036 53.295C171.778 51.0378 174.075 49.7097 177.019 50.0329C180.241 50.3864 183.448 50.9065 186.715 51.361C186.796 51.264 186.867 51.1591 186.927 51.0479C188.866 46.5031 190.699 41.8876 192.785 37.4135C193.603 35.6158 193.219 34.4443 192.002 33.1516Z" fill="black"/>
<path d="M24.2388 29.5186C24.2792 27.5997 24.158 24.8526 27.2687 24.9233C30.2228 24.989 30.1066 27.63 30.344 29.6045C30.8489 33.9169 31.157 38.2547 31.5408 42.5571H53.6486C53.4264 40.2291 53.3001 38.0729 53.0022 35.9419C51.8408 27.524 46.8112 22.0399 38.4337 20.8835C33.6906 20.2397 28.8991 20.0268 24.1176 20.2473V20.1867C17.727 20.1826 11.5964 22.7168 7.07373 27.2318C2.55109 31.7469 0.00669329 37.8733 0 44.2639L0 64.7457C0.00151678 70.1729 1.83388 75.4408 5.20069 79.6974C8.5675 83.9541 13.2719 86.9504 18.5528 88.2018V88.2624C18.9871 88.3381 19.4213 88.4038 19.8556 88.4694C20.6912 88.618 21.534 88.7225 22.3805 88.7825C28.3045 89.3833 34.2841 89.1282 40.1354 88.025C49.225 86.3384 54.2141 77.9609 53.1587 66.7353H31.4448C31.3792 67.6846 31.3489 68.5128 31.263 69.3309C30.8338 73.4212 30.556 77.5418 29.8491 81.5816C29.6622 82.6471 28.2988 84.0155 27.2232 84.3034C25.4558 84.7781 24.7842 83.1217 24.6125 81.6371C24.461 80.3545 24.2893 79.0718 24.1378 77.7841V36.3156C24.1614 34.0533 24.195 31.7876 24.2388 29.5186Z" fill="black"/>
</svg>
