<svg width="370" height="90" viewBox="0 0 370 90" fill="none" xmlns="http://www.w3.org/2000/svg">
<g clip-path="url(#clip0_1113_1482)">
<path fill-rule="evenodd" clip-rule="evenodd" d="M9 0H81C83.3868 0 85.6761 0.948211 87.3639 2.63604C89.0517 4.32387 90 6.61305 90 9V81C90 83.3868 89.0517 85.6761 87.3639 87.3639C85.6761 89.0517 83.3868 90 81 90H9C6.61305 90 4.32387 89.0517 2.63604 87.3639C0.948211 85.6761 0 83.3868 0 81V9C0 6.61305 0.948211 4.32387 2.63604 2.63604C4.32387 0.948211 6.61305 0 9 0ZM12.6093 8.6958C10.4482 8.6958 8.69629 10.4477 8.69629 12.6088C8.69629 14.77 10.4482 16.5219 12.6093 16.5219H12.6859C14.8471 16.5219 16.599 14.77 16.599 12.6088C16.599 10.4477 14.8471 8.6958 12.6859 8.6958H12.6093ZM26.3212 8.6958C24.1601 8.6958 22.4081 10.4477 22.4081 12.6088C22.4081 14.77 24.1601 16.5219 26.3212 16.5219H26.3978C28.5589 16.5219 30.3108 14.77 30.3108 12.6088C30.3108 10.4477 28.5589 8.6958 26.3978 8.6958H26.3212ZM40.0331 8.6958C37.8719 8.6958 36.12 10.4477 36.12 12.6088C36.12 14.77 37.8719 16.5219 40.0331 16.5219H40.1097C42.2708 16.5219 44.0227 14.77 44.0227 12.6088C44.0227 10.4477 42.2708 8.6958 40.1097 8.6958H40.0331Z" fill="black"/>
<path d="M161.716 76.3047H151.063V49.6275H121.744V76.3047H111.179V13.8818H121.744V39.6786H151.063V13.8818H161.716V76.3047Z" fill="black"/>
<path d="M166.655 64.6829C166.655 57.0231 172.29 52.7971 179.598 51.7405L190.603 50.0677C193.068 49.7155 193.773 48.4829 193.773 46.9862C193.773 43.3764 191.308 40.471 185.673 40.471C180.302 40.471 177.309 43.9047 176.868 48.2188L167.536 46.1058C168.328 38.7101 175.02 32.1068 185.585 32.1068C198.791 32.1068 203.81 39.5905 203.81 48.1308V69.4373C203.81 73.3112 204.25 75.8644 204.338 76.3047H194.829C194.741 76.0405 194.389 74.2797 194.389 70.846C192.364 74.1036 188.138 77.6253 181.183 77.6253C172.202 77.6253 166.655 71.4623 166.655 64.6829ZM183.12 69.6134C188.842 69.6134 193.773 66.884 193.773 58.5199V56.5829L182.591 58.2557C179.422 58.784 176.868 60.5449 176.868 64.0666C176.868 66.9721 179.07 69.6134 183.12 69.6134Z" fill="black"/>
<path d="M248.204 33.4275L231.388 76.3047H221.175L203.742 33.4275H215.012L226.369 64.0666L237.463 33.4275H248.204Z" fill="black"/>
<path d="M246.562 64.6829C246.562 57.0231 252.197 52.7971 259.505 51.7405L270.51 50.0677C272.975 49.7155 273.68 48.4829 273.68 46.9862C273.68 43.3764 271.214 40.471 265.579 40.471C260.209 40.471 257.215 43.9047 256.775 48.2188L247.443 46.1058C248.235 38.7101 254.926 32.1068 265.491 32.1068C278.698 32.1068 283.716 39.5905 283.716 48.1308V69.4373C283.716 73.3112 284.157 75.8644 284.245 76.3047H274.736C274.648 76.0405 274.296 74.2797 274.296 70.846C272.271 74.1036 268.045 77.6253 261.089 77.6253C252.109 77.6253 246.562 71.4623 246.562 64.6829ZM263.026 69.6134C268.749 69.6134 273.68 66.884 273.68 58.5199V56.5829L262.498 58.2557C259.328 58.784 256.775 60.5449 256.775 64.0666C256.775 66.9721 258.976 69.6134 263.026 69.6134Z" fill="black"/>
<path d="M300.015 51.5644V76.3047H289.802V33.4275H299.751V39.1503C302.568 34.2199 307.674 32.1949 312.429 32.1949C322.906 32.1949 327.924 39.7666 327.924 49.1873V76.3047H317.711V50.9481C317.711 45.6655 315.334 41.4394 308.907 41.4394C303.096 41.4394 300.015 45.9297 300.015 51.5644Z" fill="black"/>
<path d="M331.456 64.6829C331.456 57.0231 337.09 52.7971 344.398 51.7405L355.403 50.0677C357.869 49.7155 358.573 48.4829 358.573 46.9862C358.573 43.3764 356.108 40.471 350.473 40.471C345.102 40.471 342.109 43.9047 341.669 48.2188L332.336 46.1058C333.128 38.7101 339.82 32.1068 350.385 32.1068C363.592 32.1068 368.61 39.5905 368.61 48.1308V69.4373C368.61 73.3112 369.05 75.8644 369.138 76.3047H359.63C359.542 76.0405 359.189 74.2797 359.189 70.846C357.164 74.1036 352.938 77.6253 345.983 77.6253C337.002 77.6253 331.456 71.4623 331.456 64.6829ZM347.92 69.6134C353.643 69.6134 358.573 66.884 358.573 58.5199V56.5829L347.392 58.2557C344.222 58.784 341.669 60.5449 341.669 64.0666C341.669 66.9721 343.87 69.6134 347.92 69.6134Z" fill="black"/>
</g>
<defs>
<clipPath id="clip0_1113_1482">
<rect width="369.138" height="90" fill="white"/>
</clipPath>
</defs>
</svg>
