<?xml version="1.0" encoding="utf-8"?>
<!-- Generator: Adobe Illustrator 25.0.0, SVG Export Plug-In . SVG Version: 6.00 Build 0)  -->
<svg version="1.1" id="Layer_1" xmlns="http://www.w3.org/2000/svg" xmlns:xlink="http://www.w3.org/1999/xlink" x="0px" y="0px"
	 viewBox="0 0 345 75.1" style="enable-background:new 0 0 345 75.1;" xml:space="preserve">
<style type="text/css">
	.st0{fill:#54565A;}
	.st1{fill:none;stroke:#54565A;stroke-width:1.3;stroke-miterlimit:10;}
	.st2{fill:none;stroke:#54565A;stroke-width:3;stroke-miterlimit:10;}
	.st3{fill:#838588;}
	.st4{fill:none;stroke:#FFC629;stroke-width:1.3;stroke-miterlimit:10;}
	.st5{fill:none;stroke:#FFC629;stroke-width:3;stroke-miterlimit:10;}
	.st6{fill:#FFC629;}
</style>
<g>
	<path class="st0" d="M139,6.8h3.8l5.3,14.2h-3.9l-0.9-2.5h-5l-0.9,2.5h-3.8L139,6.8z M139.3,15.7h3.2l-1.6-5h0L139.3,15.7z"/>
	<path class="st0" d="M149.7,6.8h7.2c2.5,0,5,1.1,5,4c0,1.5-0.7,3-2.2,3.6v0c1.5,0.4,2,2.1,2.1,3.4c0,0.6,0.1,2.7,0.6,3.2h-3.7
		c-0.3-0.5-0.4-1.9-0.4-2.3c-0.1-1.4-0.3-2.9-2.1-2.9h-2.8V21h-3.7V6.8z M153.4,13h3.1c1.1,0,1.7-0.6,1.7-1.7c0-1.1-0.8-1.5-1.9-1.5
		h-2.9V13z"/>
	<path class="st0" d="M164.6,6.8h7.2c2.5,0,5,1.1,5,4c0,1.5-0.7,3-2.2,3.6v0c1.5,0.4,2,2.1,2.1,3.4c0,0.6,0.1,2.7,0.6,3.2h-3.7
		c-0.3-0.5-0.4-1.9-0.4-2.3c-0.1-1.4-0.3-2.9-2.1-2.9h-2.8V21h-3.7V6.8z M168.3,13h3.1c1.1,0,1.7-0.6,1.7-1.7c0-1.1-0.8-1.5-1.9-1.5
		h-2.9V13z"/>
	<path class="st0" d="M179.4,6.8h11.3v3h-7.6v2.5h7v2.9h-7v2.7h7.8V21h-11.5V6.8z"/>
	<path class="st0" d="M193.6,6.8h3.7v11h6.6V21h-10.3V6.8z"/>
	<path class="st0" d="M206.2,6.8h3.7v11h6.6V21h-10.3V6.8z"/>
	<path class="st0" d="M87.4,28.8h10.5v3h-6.8v2.9H97v2.9h-5.9V43h-3.7V28.8z"/>
	<path class="st0" d="M106.6,28.5c4.5,0,7,3.3,7,7.4c0,4.1-2.5,7.4-7,7.4s-7-3.3-7-7.4C99.6,31.8,102.1,28.5,106.6,28.5z
		 M106.6,40.1c2.4,0,3.3-2.1,3.3-4.2c0-2.1-0.9-4.2-3.3-4.2s-3.3,2.1-3.3,4.2C103.3,38,104.2,40.1,106.6,40.1z"/>
	<path class="st0" d="M122.6,28.5c4.5,0,7,3.3,7,7.4c0,4.1-2.5,7.4-7,7.4s-7-3.3-7-7.4C115.5,31.8,118.1,28.5,122.6,28.5z
		 M122.6,40.1c2.4,0,3.3-2.1,3.3-4.2c0-2.1-0.9-4.2-3.3-4.2s-3.3,2.1-3.3,4.2C119.2,38,120.2,40.1,122.6,40.1z"/>
	<path class="st0" d="M132.1,28.8h6.1c4.4,0,7,2.6,7,7c0,4.7-2.6,7.2-7,7.2h-6.1V28.8z M135.8,39.8h1.8c2.8-0.1,3.9-1.2,3.9-4
		c0-2.6-1.4-3.8-3.9-3.8h-1.8V39.8z"/>
	<path class="st0" d="M154.5,28.8h3.7V43h-3.7V28.8z"/>
	<path class="st0" d="M161.2,28.8h3.8l4.9,8.8h0v-8.8h3.5V43h-3.8l-4.9-8.9h0V43h-3.5V28.8z"/>
	<path class="st0" d="M179.4,38.2c0.1,1.7,1.1,2.2,2.7,2.2c1.1,0,2.3-0.4,2.3-1.5c0-1.3-2-1.5-4.1-2.1c-2-0.6-4.2-1.5-4.2-4.1
		c0-3.1,3.1-4.3,5.8-4.3c2.8,0,5.7,1.4,5.7,4.6h-3.7c0.1-1.3-1.2-1.7-2.3-1.7c-0.8,0-1.8,0.3-1.8,1.2c0,1.1,2.1,1.3,4.1,1.9
		C186,35,188,36,188,38.6c0,3.6-3.1,4.8-6.2,4.8c-3.3,0-6.2-1.4-6.2-5.1H179.4z"/>
	<path class="st0" d="M201.5,32h-4.2v11h-3.7V32h-4.2v-3.2h12.2V32z"/>
	<path class="st0" d="M203.7,28.8h3.7V43h-3.7V28.8z"/>
	<path class="st0" d="M221.7,32h-4.2v11h-3.7V32h-4.2v-3.2h12.2V32z"/>
	<path class="st0" d="M236.1,37.1c0,4.1-1.9,6.2-6.2,6.2c-4.3,0-6.2-2.1-6.2-6.2v-8.3h3.7v8.6c0,1.8,0.7,2.8,2.5,2.8
		c1.8,0,2.5-0.9,2.5-2.8v-8.6h3.7V37.1z"/>
	<path class="st0" d="M250.4,32h-4.2v11h-3.7V32h-4.2v-3.2h12.2V32z"/>
	<path class="st0" d="M252.5,28.8h11.3v3h-7.6v2.5h7v2.9h-7v2.7h7.8V43h-11.5V28.8z"/>
</g>
<line class="st1" x1="281.7" y1="4.1" x2="281.7" y2="46"/>
<g>
	<line class="st2" x1="305.2" y1="25.1" x2="281.7" y2="25.1"/>
	<path class="st2" d="M321.4,34.7c-14.3,0-16.1-6.3-16.1-9.6s1.9-9.6,16.1-9.6c10.2,0,20.7,4.3,20.7,9.6S331.5,34.7,321.4,34.7z"/>
</g>
<g>
	<path class="st3" d="M78.7,65.8c0.8,0,1-0.1,1.3-1.1l2.2-6l-0.1-0.3h1.4l2.4,6.3c0.4,0.9,0.5,1.1,1.2,1.1v0.3h-3.6v-0.3
		c1,0,1.2-0.1,1.2-0.5c0-0.1,0-0.3-0.2-0.6L84,63.2h-2.8l-0.6,1.6c-0.1,0.2-0.1,0.4-0.1,0.5c0,0.4,0.2,0.5,1.2,0.5v0.3h-3V65.8z
		 M83.7,62.6l-1.2-3.1l-1.2,3.1H83.7z"/>
	<path class="st3" d="M87.7,58.4H88c0,0.1,0.1,0.1,0.2,0.2c0.1,0,0.3,0,0.6,0H94c0.6,0,0.7,0,0.8-0.2h0.3l0.2,2.1h-0.4
		c-0.2-1.3-0.4-1.3-1.1-1.3h-1.7v5.7c0,0.8,0.1,1,1.4,1v0.3h-4.2v-0.3c1.2,0,1.4-0.2,1.4-1v-5.7H89c-0.7,0-1,0.1-1.1,1.3h-0.4
		L87.7,58.4z"/>
	<path class="st3" d="M99,58.4h0.3c0,0.1,0.1,0.1,0.2,0.2c0.1,0,0.3,0,0.6,0h5.1c0.6,0,0.7,0,0.8-0.2h0.3l0.2,2.1h-0.4
		c-0.2-1.3-0.4-1.3-1.1-1.3h-1.7v5.7c0,0.8,0.1,1,1.4,1v0.3h-4.2v-0.3c1.2,0,1.4-0.2,1.4-1v-5.7h-1.7c-0.7,0-1,0.1-1.1,1.3h-0.4
		L99,58.4z"/>
	<path class="st3" d="M109.6,64.8c0,0.7,0.1,1,1.1,1.1v0.3h-3.5v-0.3c1-0.1,1.1-0.3,1.1-1.1v-4.5c0-0.9-0.1-1.2-1.1-1.2v-0.3h3.5
		v0.3c-0.9,0-1.1,0.2-1.1,1.3V62h4.4v-1.8c0-1-0.1-1.2-1.1-1.3v-0.3h3.6v0.3c-1,0-1.1,0.3-1.1,1.2v4.6c0,0.9,0.1,1.1,1.1,1.1v0.3
		h-3.6v-0.3c0.9,0,1.1-0.3,1.1-1.2v-2.1h-4.4V64.8z"/>
	<path class="st3" d="M116.9,66.2v-0.3c1,0,1.2-0.2,1.2-0.8v-5.2c0-0.8-0.4-0.8-1.2-0.8v-0.3h6.2l0.1,1.8h-0.3l-0.1-0.3
		c-0.2-1-0.4-1-1.2-1h-2.1V62h1.9c0.7,0,0.8-0.1,0.9-0.9h0.3v2.4h-0.3c-0.1-0.9-0.2-1-0.9-1h-1.9v2.2c0,0.8,0.1,0.9,0.7,0.9h1.3
		c1.2,0,1.5-0.2,1.8-1.4h0.3l-0.2,1.9H116.9z"/>
	<path class="st3" d="M127.1,57.2h4.1v0.4c-1.1,0-1.3,0.2-1.3,1.2v3.9c0,1.9,1.3,2.8,3.1,2.8c1.6,0,3.1-0.7,3.1-2.8v-3.9
		c0-1.1-0.2-1.2-1.4-1.2v-0.4h3.5v0.4c-1.1,0-1.3,0.2-1.3,1.2v4c0,2.3-1.7,3.6-4.4,3.6c-2.7,0-4.2-1.3-4.2-3.7v-4.1
		c0-0.9-0.2-1.1-1.2-1.1V57.2z"/>
	<path class="st3" d="M140.4,60v4.7c0,0.9,0.1,1.3,1.2,1.2v0.3h-2.9v-0.3c0.9,0,1-0.3,1-1v-5.5c-0.3-0.3-0.6-0.4-1-0.4v-0.3h2.2
		l5.4,5.7V60c0-0.9-0.1-1.1-1.2-1v-0.3h2.9v0.3c-0.8,0-1.1,0.1-1.1,1.1v6.2h-0.7L140.4,60z"/>
	<path class="st3" d="M148.7,58.6h3.4v0.3c-0.8,0-1,0.2-1,1v4.7c0,0.9,0.2,1.2,1,1.1v0.3h-3.4v-0.3c1,0,1-0.4,1-1v-5
		c0-0.7-0.2-0.9-1-0.9V58.6z"/>
	<path class="st3" d="M153.9,59.9c-0.3-0.8-0.5-0.9-1.3-0.9v-0.3h3.7v0.3c-1,0-1.2,0.3-1.2,0.5c0,0.2,0.1,0.4,0.2,0.7l1.8,4.5
		l1.8-4.3c0.2-0.5,0.3-0.8,0.3-0.9c0-0.4-0.3-0.5-1.1-0.5v-0.3h3v0.3c-0.9,0-1,0.5-1.4,1.4l-2.5,6h-0.7L153.9,59.9z"/>
	<path class="st3" d="M161.5,66.2v-0.3c1,0,1.2-0.2,1.2-0.8v-5.2c0-0.8-0.4-0.8-1.2-0.8v-0.3h6.2l0.1,1.8h-0.3l-0.1-0.3
		c-0.2-1-0.4-1-1.2-1h-2.1V62h1.9c0.7,0,0.8-0.1,0.9-0.9h0.3v2.4h-0.3c-0.1-0.9-0.2-1-0.9-1h-1.9v2.2c0,0.8,0.1,0.9,0.7,0.9h1.3
		c1.2,0,1.5-0.2,1.8-1.4h0.3l-0.2,1.9H161.5z"/>
	<path class="st3" d="M171.1,64.6c0,1,0.1,1.2,1.2,1.2v0.3h-3.7v-0.3c1,0,1.1-0.2,1.1-1v-4.9c0-0.8-0.1-1-1.1-1v-0.3
		c0.3,0,0.9,0,1.7-0.1c0.6,0,1.2,0,1.5,0c2.5,0,3.3,1.1,3.3,2.2c0,0.9-0.5,1.6-1.5,2c0.2,0.1,0.7,0.6,0.9,0.8l0.8,0.8
		c1.1,1.1,1.9,1.6,2.9,1.7v0.3c-2.4,0.1-3-0.4-4.1-1.5l-0.6-0.6c-0.6-0.6-0.8-0.8-1.3-1.2c-0.4,0-0.8,0-1.1,0V64.6z M171.1,62.7
		c0.1,0,0.3,0,0.4,0c1.6-0.1,2.2-0.7,2.2-1.9c0-1.2-0.7-2-2-2c-0.2,0-0.5,0-0.6,0V62.7z"/>
	<path class="st3" d="M178.6,64.2h0.4c0.3,1.1,1.1,1.8,2.1,1.8c0.9,0,1.5-0.5,1.5-1.3c0-1.7-3.8-2.4-3.8-4.5c0-1,0.9-1.8,2.2-1.8
		c0.4,0,0.7,0,0.9,0.1c0.2,0,0.4,0.1,0.6,0.1c0.2,0,0.2,0,0.3-0.1h0.3l0.3,1.9h-0.4c-0.4-1-1.1-1.5-2-1.5c-0.8,0-1.2,0.5-1.2,1
		c0,1.6,3.8,2.1,3.8,4.5c0,1.3-1.1,2.1-2.6,2.1c-0.9,0-1.3-0.2-1.6-0.2c-0.1,0-0.2,0-0.3,0.1h-0.3L178.6,64.2z"/>
	<path class="st3" d="M184.8,58.6h3.4v0.3c-0.8,0-1,0.2-1,1v4.7c0,0.9,0.2,1.2,1,1.1v0.3h-3.4v-0.3c1,0,1-0.4,1-1v-5
		c0-0.7-0.2-0.9-1-0.9V58.6z"/>
	<path class="st3" d="M189,58.4h0.3c0,0.1,0.1,0.1,0.2,0.2s0.3,0,0.6,0h5.1c0.6,0,0.7,0,0.8-0.2h0.3l0.2,2.1h-0.4
		c-0.2-1.3-0.4-1.3-1.1-1.3h-1.7v5.7c0,0.8,0.1,1,1.4,1v0.3h-4.2v-0.3c1.2,0,1.4-0.2,1.4-1v-5.7h-1.7c-0.7,0-1,0.1-1.1,1.3h-0.4
		L189,58.4z"/>
	<path class="st3" d="M198.5,59.9c-0.6-0.9-0.8-0.9-1.5-1v-0.3h3.7v0.3c-0.7,0-0.9,0.1-0.9,0.4c0,0.2,0.1,0.4,0.4,0.8l1.6,2.3
		l1.4-2.2c0.3-0.5,0.4-0.7,0.4-0.9c0-0.3-0.2-0.4-0.8-0.4v-0.3h2.9v0.3c-0.9,0.1-1.1,0.3-1.9,1.5l-1.6,2.7v1.7
		c0,0.9,0.1,1.1,1.2,1.1v0.3h-3.7v-0.3c0.9,0,1.2-0.1,1.2-1.1v-1.5L198.5,59.9z"/>
	<path class="st3" d="M211.2,60.3c0.4,0,1.3,0.6,1.3,2.1c0,2.7-2.7,3.9-3.4,3.9s-1.3-1.1-1.3-2.3C207.8,61.7,210.3,60.3,211.2,60.3z
		 M210.4,60.8c-0.9,0-1.7,1.7-1.7,3.2c0,1.2,0.5,1.8,1,1.8c1.2,0,1.8-1.9,1.8-3.2C211.6,61.6,211.1,60.8,210.4,60.8z"/>
	<path class="st3" d="M213.6,60.9l0-0.3c0.3,0,0.7-0.1,1.1-0.2c0.2-1.2,0.6-2.4,1.5-3.2c0.5-0.5,1.1-0.8,1.7-0.8c0.6,0,1,0.3,1,0.7
		c0,0.2-0.2,0.4-0.4,0.4c-0.5,0-0.9-0.6-1.3-0.6c-0.6,0-1,0.6-1.2,1.6l-0.4,1.9h1.2l-0.1,0.5h-1.2l-0.7,4.2
		c-0.6,3.2-2.2,4.4-3.6,4.4c-0.6,0-1.1-0.3-1.1-0.7c0-0.2,0.2-0.4,0.5-0.4c0.5,0,0.8,0.6,1.4,0.6c0.3,0,0.6-0.2,0.9-0.4
		c0.7-0.7,1-3.2,1.1-3.5l0.7-4.2H213.6z"/>
	<path class="st3" d="M229.2,65.5c-1.6,0.6-2.7,0.9-3.9,0.9c-2.9,0-4.9-1.8-4.9-4.5c0-1.9,1.1-4.9,5.1-4.9c1.4,0,2.3,0.4,2.8,0.4
		c0.2,0,0.3,0,0.4-0.2h0.4v2.7h-0.4c-0.3-1.6-1.4-2.4-2.9-2.4c-2.2,0-3.6,1.7-3.6,4.3c0,2.9,1.8,4.1,3.6,4.1c0.6,0,1.2-0.2,1.8-0.5
		v-1.7c0-1-0.3-1.1-1.7-1.1v-0.4h4.3v0.4c-1,0-1,0.6-1,1.1V65.5z"/>
	<path class="st3" d="M230.6,58.6h3.5v0.3c-0.9,0-1.1,0.2-1.1,1v3.3c0,1.6,1.1,2.4,2.6,2.4c1.4,0,2.6-0.6,2.6-2.4V60
		c0-0.9-0.2-1-1.2-1v-0.3h2.9v0.3c-0.9,0-1.1,0.2-1.1,1v3.4c0,1.9-1.5,3-3.7,3c-2.3,0-3.6-1.1-3.6-3.1v-3.4c0-0.7-0.2-0.9-1-0.9
		V58.6z"/>
	<path class="st3" d="M240.2,66.2v-0.3c1,0,1.2-0.2,1.2-0.8v-5.2c0-0.8-0.4-0.8-1.2-0.8v-0.3h6.2l0.1,1.8h-0.3l-0.1-0.3
		c-0.2-1-0.4-1-1.2-1h-2.1V62h1.9c0.7,0,0.8-0.1,0.9-0.9h0.3v2.4h-0.3c-0.1-0.9-0.2-1-0.9-1h-1.9v2.2c0,0.8,0.1,0.9,0.7,0.9h1.4
		c1.2,0,1.5-0.2,1.8-1.4h0.3l-0.2,1.9H240.2z"/>
	<path class="st3" d="M247.4,66.2v-0.3c1,0,1.2-0.1,1.2-1V60c0-0.8-0.1-1.1-1.2-1v-0.3h4v0.3c-1.3,0-1.5,0-1.5,1V65
		c0,0.5,0.1,0.6,0.7,0.6h1.3c1,0,1.1,0,2-1.3h0.4l-0.9,1.8H247.4z"/>
	<path class="st3" d="M254.5,65.8c0.8,0,1-0.2,1-1.3v-4.3c0-1.2-0.2-1.3-1.2-1.3v-0.3c0.4,0,1,0,1.3,0c0.6,0,1.4-0.1,1.6-0.1
		c2.3,0,3.5,0.5,3.5,2.2c0,1.4-1.2,2.4-2.9,2.4c-0.3,0-0.7,0-1-0.1v1.7c0,0.9,0.2,1.1,1.4,1.2v0.3h-3.7V65.8z M256.9,62.6
		c0.2,0,0.3,0.1,0.5,0.1c1.1,0,1.9-0.9,1.9-2c0-0.8-0.4-1.8-1.8-1.8c-0.2,0-0.4,0-0.6,0V62.6z"/>
	<path class="st3" d="M263.6,64.8c0,0.7,0.1,1,1.1,1.1v0.3h-3.5v-0.3c1-0.1,1.1-0.3,1.1-1.1v-4.5c0-0.9-0.1-1.2-1.1-1.2v-0.3h3.5
		v0.3c-0.9,0-1.1,0.2-1.1,1.3V62h4.4v-1.8c0-1-0.1-1.2-1.1-1.3v-0.3h3.6v0.3c-1,0-1.1,0.3-1.1,1.2v4.6c0,0.9,0.1,1.1,1.1,1.1v0.3
		h-3.6v-0.3c0.9,0,1.1-0.3,1.1-1.2v-2.1h-4.4V64.8z"/>
</g>
<g>
	<line class="st4" x1="70.1" y1="4.1" x2="70.1" y2="46"/>
	<g>
		<line class="st5" x1="45.5" y1="25.1" x2="70.1" y2="25.1"/>
	</g>
	<g>
		<path class="st6" d="M17.5,21.1c0.3,0.3,0.6,0.6,1,0.9c0.8,0.6,1.5,1,2.2,1.2c1.8,0.7,3.4,0.5,4.2,0.4c0-0.5-0.1-1-0.2-1.5
			c-0.1-0.6-0.2-1.1-0.4-1.6c0,0,0-0.1,0-0.1c-0.2-0.6-0.4-1.1-0.7-1.7c-0.6-0.8-1.3-1.6-2.4-2.5c-2.7-2.1-6.7-1.2-6.7-1.2
			C15.4,17.6,15.8,19.4,17.5,21.1"/>
		<path class="st6" d="M17.6,29.3c0.3-0.3,0.6-0.6,1-0.9c0.7-0.6,1.5-1,2.2-1.3c1.8-0.7,3.4-0.6,4.2-0.5c0,0.5-0.1,1-0.2,1.5
			c-0.1,0.6-0.2,1.1-0.4,1.6c0,0,0,0.1,0,0.1c-0.2,0.6-0.4,1.2-0.7,1.7c-0.6,0.8-1.3,1.7-2.4,2.5c-2.7,2.1-6.6,1.4-6.6,1.4
			C15.6,32.9,15.9,31,17.6,29.3"/>
		<path class="st6" d="M26.8,21c0.3,0.3,0.6,0.6,1,0.9c0.8,0.6,1.5,1,2.2,1.2c1.8,0.7,3.4,0.5,4.2,0.4c0-0.5-0.1-1-0.2-1.5
			c-0.1-0.6-0.2-1.1-0.4-1.6c0,0,0-0.1,0-0.1c-0.2-0.6-0.4-1.1-0.7-1.7c-0.6-0.8-1.3-1.6-2.4-2.5c-2.7-2.1-6.7-1.2-6.7-1.2
			C24.8,17.4,25.2,19.3,26.8,21"/>
		<path class="st6" d="M26.9,29.1c0.3-0.3,0.6-0.6,1-0.9c0.7-0.6,1.5-1,2.2-1.3c1.8-0.7,3.4-0.6,4.2-0.5c0,0.5-0.1,1-0.2,1.5
			c-0.1,0.6-0.2,1.1-0.4,1.6c0,0,0,0.1,0,0.1c-0.2,0.6-0.4,1.2-0.7,1.7c-0.6,0.8-1.3,1.7-2.4,2.5c-2.7,2.1-6.6,1.4-6.6,1.4
			C24.9,32.7,25.2,30.9,26.9,29.1"/>
		<path class="st6" d="M36.1,20.8c0.3,0.3,0.6,0.6,1,0.9c0.8,0.6,1.5,1,2.2,1.2c1.8,0.7,3.4,0.5,4.2,0.4c0-0.5-0.1-1-0.2-1.5
			c-0.1-0.6-0.2-1.1-0.4-1.6c0,0,0-0.1,0-0.1c-0.2-0.6-0.4-1.1-0.7-1.7c-0.6-0.8-1.3-1.6-2.4-2.5c-2.7-2.1-6.7-1.2-6.7-1.2
			C34.1,17.2,34.5,19.1,36.1,20.8"/>
		<path class="st6" d="M36.2,29c0.3-0.3,0.6-0.6,1-0.9c0.7-0.6,1.5-1,2.2-1.3c1.8-0.7,3.4-0.6,4.2-0.5c0,0.5-0.1,1-0.2,1.5
			c-0.1,0.6-0.2,1.1-0.4,1.6c0,0,0,0.1,0,0.1c-0.2,0.6-0.4,1.2-0.7,1.7c-0.6,0.8-1.3,1.7-2.4,2.5c-2.7,2.1-6.6,1.4-6.6,1.4
			C34.2,32.6,34.6,30.7,36.2,29"/>
		<path class="st6" d="M11.7,21.2c3.8,0,5.7,1.9,5.7,4.2s-2,4.2-5.7,4.2s-7.9-4.2-7.9-4.2S8,21.2,11.7,21.2z"/>
	</g>
</g>
</svg>
