<?xml version="1.0" encoding="UTF-8"?>
<svg id="Layer_2" data-name="Layer 2" xmlns="http://www.w3.org/2000/svg" viewBox="0 0 911.5 291.51">
  <defs>
    <style>
      .cls-1 {
        stroke: #5e7179;
        stroke-width: 4.85px;
      }

      .cls-1, .cls-2, .cls-3, .cls-4, .cls-5, .cls-6, .cls-7, .cls-8, .cls-9, .cls-10, .cls-11, .cls-12 {
        stroke-miterlimit: 10;
      }

      .cls-1, .cls-13 {
        fill: #fff;
      }

      .cls-14 {
        fill: #464646;
        stroke-width: 0px;
      }

      .cls-2 {
        fill: #a3a5a8;
        stroke-width: .67px;
      }

      .cls-2, .cls-3, .cls-4, .cls-6, .cls-7, .cls-8, .cls-9, .cls-10, .cls-11, .cls-12 {
        stroke: #000;
      }

      .cls-3 {
        fill: #58595b;
        stroke-width: .24px;
      }

      .cls-4 {
        stroke-width: 3.06px;
      }

      .cls-4, .cls-6, .cls-8, .cls-11 {
        fill: #babcbe;
      }

      .cls-5 {
        stroke-width: 8.07px;
      }

      .cls-5, .cls-13, .cls-15, .cls-16 {
        stroke: #464646;
      }

      .cls-5, .cls-15 {
        fill: #bdccd4;
      }

      .cls-6 {
        stroke-width: .43px;
      }

      .cls-13, .cls-15, .cls-16 {
        stroke-linecap: square;
        stroke-linejoin: round;
        stroke-width: 4px;
      }

      .cls-7 {
        stroke-width: .45px;
      }

      .cls-7, .cls-10 {
        fill: #e8e7e3;
      }

      .cls-8 {
        stroke-width: .56px;
      }

      .cls-9 {
        fill: #cdc6be;
        stroke-width: .65px;
      }

      .cls-10 {
        stroke-width: 2.69px;
      }

      .cls-11 {
        stroke-width: 2.02px;
      }

      .cls-12 {
        fill: #000;
        stroke-width: .25px;
      }

      .cls-16 {
        fill: none;
      }
    </style>
  </defs>
  <g id="AboutIcon">
    <g id="Longboard">
      <g>
        <path class="cls-5" d="M243.24,246.23c-22.73-5.08-43.43-9.21-62.32-12.7-.03,0-.05,0-.05-.03-3.16-.59-6.28-1.15-9.34-1.72-3.83-.68-7.61-1.36-11.28-2.02-6.25-1.1-12.3-2.14-18.1-3.12C44.42,210.03,10.45,207.81,11.25,151.23c-.07-56.58,33.93-58.24,131.86-73.31,5.81-.89,11.87-1.83,18.14-2.86,3.66-.57,7.39-1.16,11.2-1.81,3.1-.51,6.24-1.03,9.46-1.57,0-.03.03-.03.05-.03,18.93-3.19,39.68-7,62.48-11.72,176.83-36.63,325.02-29.53,468.09-5.82,9.29,1.55,18.15,3.18,26.54,4.91l-.06,9.01c-.03,5.33,4.74,9.73,10.69,9.77l43.03.34c2.99.02,5.65-1.06,7.61-2.8h.03c101.88,34.95,100.07,82.9,100.07,82.9,0,0,1.2,48.01-101.12,81.31h-.03c-1.93-1.77-4.58-2.87-7.57-2.89l-43.03-.34c-5.95-.05-10.78,4.25-10.82,9.58l-.06,9.01c-8.42,1.61-17.29,3.09-26.6,4.49-143.36,21.48-291.62,26.23-467.96-13.19Z"/>
        <g id="Bottom">
          <path id="Rod" class="cls-10" d="M137.17,235.56l16.48.13c.47-1.21.78-2.57,1-3.99,1.42-10.05,4.4-24.39,10.49-33.63,2.3-3.5,4.37-7.53,6.18-11.68.8-1.84,1.56-3.7,2.26-5.54,1.3-3.45-1.05-7.23-4.4-7.03-1.71.1-3.5-.11-5.26-.64-6.63-2.01-11.55-8.62-12.08-16.22-.75-10.89,7-19.95,16.63-19.87h.08c3.4.06,5.8-3.61,4.47-7.08-.9-2.36-1.89-4.69-2.94-6.97-1.34-2.87-2.8-5.63-4.39-8.11-5.97-9.34-8.77-23.73-10.06-33.77-.2-1.42-.49-2.78-.95-4l-16.51-.13c-.62,1.7-1.02,3.62-1.14,5.66l-2.51,40.07-1.37,22.15c-.46-.17-.94-.26-1.43-.27-1.84-.01-3.51,1.28-4.13,3.23l-1.64,5.2c-.31,1.02-.32,2.12-.02,3.14l1.58,5.23c.6,1.96,2.25,3.28,4.09,3.29.43,0,.84-.05,1.25-.19l1.06,21.54,2.17,43.79c.09,2.04.49,3.97,1.09,5.68Z"/>
          <g id="Background">
            <path class="cls-11" d="M122.69,186l11.22.09-1.06-21.54c-.41.14-.82.19-1.25.19-1.84-.01-3.49-1.33-4.09-3.29l-1.58-5.23c-.3-1.02-.29-2.13.02-3.14l1.64-5.2c.63-1.95,2.29-3.24,4.13-3.23.49,0,.97.09,1.43.27l1.37-22.15-11.42-.09c-2.3-.02-4.15,2.01-4.17,4.56l-.35,54.14c-.02,2.55,1.81,4.6,4.11,4.62Z"/>
            <path class="cls-11" d="M171.32,186.38l17.68.14c2.3.02,4.15-2.01,4.17-4.56l.35-54.14c.02-2.55-1.81-4.6-4.11-4.62l-19.34-.15c1.06,2.28,2.04,4.61,2.94,6.97,1.33,3.47-1.07,7.13-4.47,7.08h-.08c-9.63-.08-17.38,8.99-16.63,19.87.54,7.6,5.45,14.21,12.08,16.22,1.76.52,3.55.74,5.26.64,3.35-.2,5.7,3.59,4.4,7.03-.7,1.84-1.45,3.7-2.26,5.54Z"/>
          </g>
          <g id="Top_Left" data-name="Top Left">
            <polygon class="cls-6" points="183.55 181.68 183.57 178.02 186.44 176.21 189.29 178.06 189.27 181.72 186.4 183.53 183.55 181.68"/>
            <polygon class="cls-3" points="184.84 180.86 184.86 178.85 186.43 177.86 188 178.88 187.98 180.89 186.41 181.88 184.84 180.86"/>
          </g>
          <g id="Top_Right" data-name="Top Right">
            <polygon class="cls-6" points="122.48 181.2 122.5 177.53 125.38 175.72 128.23 177.58 128.2 181.24 125.33 183.05 122.48 181.2"/>
            <polygon class="cls-3" points="123.78 180.38 123.79 178.37 125.36 177.38 126.93 178.39 126.92 180.41 125.34 181.4 123.78 180.38"/>
          </g>
          <g id="Bootom_Right" data-name="Bootom Right">
            <polygon class="cls-6" points="122.8 131.14 122.82 127.48 125.7 125.67 128.55 127.52 128.52 131.18 125.65 132.99 122.8 131.14"/>
            <polygon class="cls-3" points="124.1 130.32 124.11 128.31 125.69 127.32 127.25 128.34 127.24 130.35 125.66 131.34 124.1 130.32"/>
          </g>
          <g id="Bottom_Left" data-name="Bottom Left">
            <polygon class="cls-6" points="183.97 131.69 183.99 128.03 186.86 126.22 189.71 128.07 189.69 131.74 186.81 133.55 183.97 131.69"/>
            <polygon class="cls-3" points="185.26 130.87 185.27 128.86 186.85 127.87 188.42 128.89 188.4 130.9 186.83 131.89 185.26 130.87"/>
          </g>
          <g id="Main_Nut" data-name="Main Nut">
            <path class="cls-9" d="M166.6,172.86c8.23.07,14.95-7.53,15.01-16.94.06-9.41-6.56-17.11-14.79-17.17,5.9.95,10.47,8.27,10.42,17.14s-4.73,16.11-10.64,16.97Z"/>
            <path class="cls-4" d="M165.37,172.94c.41,0,.82-.02,1.2-.08h.03c5.91-.86,10.58-8.1,10.64-16.97s-4.52-16.19-10.42-17.14h-.03c-.38-.06-.79-.09-1.2-.09-1.81-.01-3.53.57-5.07,1.66-5.08,2.65-8.64,8.55-8.68,15.37-.04,6.83,3.44,12.78,8.49,15.51,1.53,1.12,3.23,1.73,5.05,1.74Z"/>
            <ellipse class="cls-2" cx="165.03" cy="155.8" rx="11.63" ry="7.66" transform="translate(8.36 320) rotate(-89.7)"/>
            <polygon class="cls-8" points="164.73 162.58 161.14 159.16 161.18 152.37 164.82 149.01 168.41 152.43 168.37 159.22 164.73 162.58"/>
            <path class="cls-7" d="M165.96,159.81l-2.43-.02c-.12,0-.23-.08-.27-.19l-1.29-3.72c-.02-.06-.02-.13,0-.19l1.34-3.7c.04-.11.15-.19.27-.19l2.43.02c.12,0,.23.08.27.19l1.29,3.72c.02.06.02.13,0,.19l-1.34,3.7c-.04.11-.15.19-.27.19Z"/>
            <path class="cls-12" d="M165.43,157.99h-1.33c-.07-.01-.13-.05-.15-.12l-.71-2.04s-.01-.07,0-.11l.74-2.03c.02-.06.08-.1.15-.1h1.33c.07.01.13.05.15.12l.71,2.04s.01.07,0,.11l-.74,2.03c-.02.06-.08.1-.15.1Z"/>
          </g>
          <path id="Right_Wheel" data-name="Right Wheel" class="cls-1" d="M125.56,276.85l43.03.34c5.95.05,10.78-4.26,10.82-9.59l.14-22.03c.03-5.33-4.74-9.71-10.69-9.76l-43.03-.34c-5.95-.05-10.81,4.26-10.84,9.59l-.14,22.03c-.03,5.33,4.77,9.71,10.72,9.76Z"/>
          <path id="Left_Wheel" data-name="Left Wheel" class="cls-1" d="M126.84,76.94l43.03.34c5.95.05,10.78-4.26,10.82-9.59l.14-22.03c.03-5.33-4.74-9.71-10.69-9.76l-43.03-.34c-5.95-.05-10.81,4.26-10.84,9.59l-.14,22.03c-.03,5.33,4.77,9.71,10.72,9.76Z"/>
        </g>
        <g id="Top">
          <path class="cls-10" d="M780.37,236.59l-16.48-.13c-.45-1.22-.75-2.58-.95-4-1.29-10.07-4.08-24.46-10.05-33.8-2.25-3.53-4.27-7.6-6.03-11.78-.78-1.85-1.51-3.72-2.19-5.57-1.26-3.47,1.15-7.22,4.49-6.96,1.71.13,3.5-.06,5.27-.55.44-.14.87-.28,1.31-.44.69-.25,1.36-.58,2-.95.46-.25.9-.53,1.33-.87.33-.22.67-.48.98-.76.23-.14.44-.34.64-.56.23-.2.46-.42.67-.65.1-.06.21-.17.31-.31.21-.25.44-.51.64-.76.28-.25.51-.56.7-.87.49-.59.9-1.24,1.29-1.94.23-.39.44-.82.62-1.21.21-.42.39-.85.54-1.27.13-.34.26-.68.36-1.02.16-.45.29-.9.39-1.36.05-.2.08-.4.13-.59.08-.37.16-.76.21-1.13.08-.45.13-.88.16-1.33.89-10.87-6.74-20.06-16.38-20.13h-.08c-3.4,0-5.75-3.7-4.37-7.15.93-2.34,1.95-4.66,3.03-6.92,1.37-2.85,2.87-5.59,4.5-8.04,6.09-9.25,9.07-23.59,10.49-33.61.21-1.42.53-2.77,1-3.99l16.51.13c.6,1.7.97,3.63,1.06,5.68l1.99,40.11,1.08,22.17c.46-.17.95-.25,1.43-.24,1.84.01,3.49,1.33,4.09,3.29l1.58,5.23c.3,1.02.29,2.13-.02,3.14l-1.64,5.2c-.63,1.95-2.29,3.24-4.13,3.23-.43,0-.84-.06-1.25-.21l-1.34,21.52-2.73,43.75c-.12,2.04-.54,3.96-1.16,5.66Z"/>
          <g id="Background-2" data-name="Background">
            <path class="cls-11" d="M795.48,187.27l-11.22-.09,1.34-21.52c.41.14.82.2,1.25.21,1.84.01,3.51-1.28,4.13-3.23l1.64-5.2c.31-1.02.32-2.12.02-3.14l-1.58-5.23c-.6-1.96-2.25-3.28-4.09-3.29-.49,0-.97.08-1.43.24l-1.08-22.17,11.42.09c2.3.02,4.13,2.07,4.11,4.62l-.35,54.14c-.02,2.55-1.87,4.58-4.17,4.56Z"/>
            <path class="cls-11" d="M746.86,186.88l-17.68-.14c-2.3-.02-4.13-2.07-4.11-4.62l.35-54.14c.02-2.55,1.87-4.58,4.17-4.56l19.34.15c-1.09,2.26-2.1,4.57-3.03,6.92-1.38,3.45.98,7.15,4.37,7.15h.08c9.63.08,17.27,9.26,16.38,20.13-.64,7.59-5.64,14.12-12.29,16.03-1.77.5-3.56.68-5.27.55-3.35-.25-5.75,3.5-4.49,6.96.68,1.85,1.41,3.72,2.19,5.57Z"/>
          </g>
          <g id="Top_Left-2" data-name="Top Left">
            <polygon class="cls-6" points="734.69 181.98 734.71 178.32 731.86 176.47 728.99 178.28 728.97 181.94 731.82 183.79 734.69 181.98"/>
            <polygon class="cls-3" points="733.4 181.15 733.42 179.14 731.85 178.12 730.28 179.11 730.26 181.12 731.83 182.14 733.4 181.15"/>
          </g>
          <g id="Top_Right-2" data-name="Top Right">
            <polygon class="cls-6" points="795.76 182.47 795.78 178.8 792.93 176.95 790.06 178.76 790.03 182.42 792.88 184.28 795.76 182.47"/>
            <polygon class="cls-3" points="794.47 181.63 794.49 179.62 792.92 178.6 791.34 179.59 791.33 181.61 792.9 182.62 794.47 181.63"/>
          </g>
          <g id="Bootom_Right-2" data-name="Bootom Right">
            <polygon class="cls-6" points="796.08 132.41 796.1 128.75 793.25 126.89 790.38 128.7 790.36 132.36 793.21 134.22 796.08 132.41"/>
            <polygon class="cls-3" points="794.79 131.57 794.81 129.56 793.24 128.54 791.67 129.54 791.65 131.55 793.22 132.57 794.79 131.57"/>
          </g>
          <g id="Bottom_Left-2" data-name="Bottom Left">
            <polygon class="cls-6" points="734.91 131.99 734.94 128.33 732.09 126.48 729.22 128.28 729.19 131.95 732.04 133.8 734.91 131.99"/>
            <polygon class="cls-3" points="733.63 131.16 733.64 129.15 732.08 128.13 730.5 129.12 730.49 131.13 732.05 132.15 733.63 131.16"/>
          </g>
          <g id="Main_Nut-2" data-name="Main Nut">
            <path class="cls-9" d="M751.75,173.43c-8.23-.07-14.85-7.77-14.79-17.17.06-9.41,6.78-17,15.01-16.94-5.91.86-10.58,8.1-10.64,16.97-.06,8.87,4.52,16.19,10.42,17.14Z"/>
            <path class="cls-4" d="M752.97,173.53c-.41,0-.82-.03-1.2-.09h-.03c-5.9-.95-10.47-8.27-10.42-17.14.06-8.87,4.73-16.11,10.64-16.97h.03c.38-.05.79-.08,1.2-.08,1.81.01,3.52.62,5.05,1.74,5.04,2.73,8.53,8.68,8.49,15.51-.04,6.83-3.61,12.72-8.68,15.37-1.54,1.09-3.26,1.67-5.07,1.66Z"/>
            <ellipse class="cls-2" cx="753.54" cy="156.4" rx="11.63" ry="7.66" transform="translate(593.15 909.1) rotate(-89.7)"/>
            <polygon class="cls-8" points="753.75 163.19 757.39 159.82 757.43 153.04 753.84 149.61 750.2 152.98 750.16 159.77 753.75 163.19"/>
            <path class="cls-7" d="M752.55,160.39l2.43.02c.12,0,.23-.08.27-.19l1.34-3.7c.02-.06.02-.13,0-.19l-1.29-3.72c-.04-.12-.15-.19-.27-.19l-2.43-.02c-.12,0-.23.08-.27.19l-1.34,3.7c-.02.06-.02.13,0,.19l1.29,3.72c.04.12.15.19.27.19Z"/>
            <path class="cls-12" d="M753.11,158.59h1.33c.07.01.13-.03.15-.09l.74-2.03s.01-.07,0-.11l-.71-2.04c-.02-.06-.08-.11-.15-.11h-1.33c-.07-.01-.13.03-.15.09l-.74,2.03s-.01.07,0,.11l.71,2.04c.02.06.08.11.15.11Z"/>
          </g>
          <path class="cls-1" d="M791.45,278.07l-43.03-.34c-5.95-.05-10.73-4.45-10.69-9.77l.14-22.04c.03-5.33,4.87-9.62,10.82-9.58l43.03.34c2.99.02,5.64,1.12,7.57,2.89h.03c1.96,1.77,3.14,4.19,3.12,6.85l-.14,22.04c-.03,5.33-4.89,9.65-10.84,9.6Z"/>
          <path class="cls-1" d="M792.73,78.16l-43.03-.34c-5.95-.05-10.73-4.45-10.69-9.77l.14-22.01c.03-5.35,4.87-9.65,10.82-9.6l43.03.34c5.95.05,10.75,4.42,10.72,9.78l-.14,22.01c-.02,2.66-1.23,5.06-3.21,6.8h-.03c-1.95,1.74-4.62,2.82-7.61,2.8Z"/>
        </g>
      </g>
    </g>
    <g id="Coffee_Cup" data-name="Coffee Cup">
      <path class="cls-13" d="M694.24,223.78c0,54.29-12.19,54.06-26.97,54.06s-27.06-.47-27.06-54.74c1.12,2.99,12.95,5.36,27.27,5.36,13.25,0,24.29-2.01,26.76-4.68Z"/>
      <path class="cls-13" d="M694.39,223.35c0,.39-.18.77-.51,1.13-2.43,2.67-13.33,4.68-26.39,4.68-14.13,0-25.72-2.35-26.82-5.34t0,0c-.06-.15-.09-.31-.09-.46,0-3.21,12.05-5.81,26.9-5.81s26.9,2.6,26.9,5.81Z"/>
      <path class="cls-14" d="M670.2,210c2.29-4.75,3.71-10.79.97-15.58-1.28-2.03-3.35-4.15-3.48-6.81-.51-5.42,2.49-10.37,5.77-14.19.08-.09.22-.1.31-.02.07.06.09.17.05.26-1.37,2.96-2.62,5.99-2.98,9.01-.37,3.05.52,5.38,2.43,7.69,2.38,2.92,2.37,7.31,1.17,10.65-1.01,3.23-2.52,6.13-4.09,9.07-.05.09-.2.02-.15-.07h0Z"/>
      <path class="cls-14" d="M657.88,209.65c2.77-9.14,3.89-19.51-.28-28.37-5.05-9.44-.88-21.01,3.52-29.82.11-.21.48-.09.4.16-2.38,8.03-4.59,16.7-1.7,24.75,1.55,3.36,3.3,7.23,3.15,11.09.02,5.21-1.31,10.16-2.66,15.08-.71,2.41-1.49,4.78-2.27,7.15-.03.1-.19.05-.16-.05h0Z"/>
    </g>
    <g id="Laptop">
      <rect class="cls-13" x="279.1" y="-57.84" width="254.98" height="374.67" rx="5" ry="5" transform="translate(536.08 -277.1) rotate(90)"/>
      <rect class="cls-13" x="228.4" y="12" width="356.39" height="234.99" rx="5" ry="5"/>
      <path class="cls-13" d="M212.33,257.04h387.67c4.14,0,7.5,3.36,7.5,7.5v15.5H205.5v-16.17c0-3.77,3.06-6.83,6.83-6.83Z"/>
      <path class="cls-16" d="M371.4,256.72h68.91c4.14,0,7.5,3.36,7.5,7.5v3.32h-83.23v-3.99c0-3.77,3.06-6.83,6.83-6.83Z" transform="translate(812.37 524.26) rotate(180)"/>
      <rect class="cls-16" x="286.18" y="17.72" width="128.68" height="180.96" rx="5" ry="5" transform="translate(458.72 -242.32) rotate(90)"/>
      <line class="cls-16" x1="260.04" y1="52.04" x2="440.5" y2="52.04"/>
      <line class="cls-16" x1="468.5" y1="87.48" x2="559.5" y2="87.48"/>
      <line class="cls-16" x1="341.5" y1="137.15" x2="370.18" y2="137.15"/>
      <line class="cls-16" x1="341.5" y1="129.49" x2="373.63" y2="129.49"/>
      <line class="cls-16" x1="341.52" y1="121.82" x2="370.21" y2="121.82"/>
      <line class="cls-16" x1="341.55" y1="78.64" x2="404.2" y2="78.64"/>
      <line class="cls-16" x1="341.55" y1="87.13" x2="404.2" y2="87.13"/>
      <line class="cls-16" x1="341.55" y1="95.62" x2="404.2" y2="95.62"/>
      <line class="cls-16" x1="341.55" y1="104.12" x2="404.2" y2="104.12"/>
      <rect class="cls-16" x="453.15" y="93.65" width="121.2" height="91.51" rx="5" ry="5" transform="translate(653.16 -374.35) rotate(90)"/>
      <line class="cls-16" x1="259.99" y1="161.3" x2="440.45" y2="161.3"/>
      <line class="cls-16" x1="484.42" y1="113.58" x2="542.38" y2="113.58"/>
      <line class="cls-16" x1="484.45" y1="123.52" x2="542.42" y2="123.52"/>
      <line class="cls-16" x1="484.34" y1="133.47" x2="542.31" y2="133.47"/>
      <line class="cls-16" x1="484.75" y1="161.25" x2="542.72" y2="161.25"/>
      <line class="cls-16" x1="484.75" y1="172.25" x2="542.72" y2="172.25"/>
      <rect class="cls-16" x="288.5" y="75.4" width="42" height="65"/>
    </g>
    <rect id="Base" class="cls-15" x="2" y="278.01" width="907.5" height="11.5"/>
  </g>
</svg>