<?xml version="1.0" encoding="UTF-8"?>
<svg xmlns="http://www.w3.org/2000/svg" version="1.1" viewBox="0 0 47 47">
  <defs>
    <style>
      .cls-1 {
        fill: #b3bbbf;
        stroke-width: 0px;
      }
    </style>
  </defs>
  <g id="Layer_1" data-name="Layer 1">
    <path class="cls-1" d="M-16.1,22.8l6.2,6.2c.2.2.2.4.2.6s0,.4-.2.6l-6.2,6.2c-.1.2-.4.2-.6.2s-.4,0-.6-.2l-.9-.9c-.2-.2-.2-.4-.2-.6s0-.4.2-.6l4.2-4.2c.2-.2.2-.4.2-.6s0-.4-.2-.6l-4.2-4.2c-.2-.2-.2-.4-.2-.6s0-.4.2-.6l.9-.9c.1-.2.4-.2.6-.2s.4,0,.6.2Z"/>
  </g>
  <g id="Layer_2" data-name="Layer 2">
    <path class="cls-1" d="M33.7,37l-5.9-5.9c-.2-.2-.5-.2-.7,0l-1.1,1.1c-.2.2-.2.5,0,.7l3.1,3.1h-11.9c-.3,0-.5.2-.5.5v1.6c0,.3.2.5.5.5h11.9l-3.1,3.1c-.2.2-.2.5,0,.7l1.1,1.1c.2.2.5.2.7,0l5.9-5.9c.2-.2.2-.5,0-.7Z"/>
    <path class="cls-1" d="M14.5,21.8l-1.1-1.1c-.2-.2-.5-.2-.7,0l-4.1,4.1c-.2.2-.5.2-.7,0l-4.1-4.1c-.2-.2-.5-.2-.7,0l-1.1,1.1c-.2.2-.2.5,0,.7l5.9,5.9c.2.2.5.2.7,0l5.9-5.9c.2-.2.2-.5,0-.7Z"/>
    <path class="cls-1" d="M26.5,9.2l-5.9-5.9c-.2-.2-.5-.2-.7,0l-1.1,1.1c-.2.2-.2.5,0,.7l3.1,3.1h-8v2.6h8l-3.1,3.1c-.2.2-.2.5,0,.7l1.1,1.1c.2.2.5.2.7,0l5.9-5.9c.2-.2.2-.5,0-.7Z"/>
    <path class="cls-1" d="M-20.7,41.4l-1.1,1.1c-.2.2-.2.5,0,.7l4.1,4.1c.2.2.2.5,0,.7l-4.1,4.1c-.2.2-.2.5,0,.7l1.1,1.1c.2.2.5.2.7,0l5.9-5.9c.2-.2.2-.5,0-.7l-5.9-5.9c-.2-.2-.5-.2-.7,0Z"/>
    <polygon class="cls-1" points="-17.3 46.3 -22.7 46.3 -22.8 46.3 -26.7 46.3 -26.7 48.9 -21.2 48.9 -21.2 48.9 -17.3 48.9 -17.3 46.3"/>
  </g>
  <g id="Layer_3" data-name="Layer 3">
    <path class="cls-1" d="M27.9-81.5l-60.8-60.8c-2-2-5.3-2-7.3,0l-11.6,11.5c-2,2-2.1,5.3,0,7.4l32.2,32.2h-122.8c-2.8,0-5.1,2.3-5.1,5.2v16.5c0,2.8,2.4,5.1,5.2,5.1H-19.7l-32.2,32.2c-2,2-2,5.3,0,7.4l11.6,11.5c2,2,5.3,2,7.3,0l60.8-60.8c2-2,2-5.3,0-7.4Z"/>
  </g>
</svg>