<?xml version="1.0" encoding="UTF-8"?>
<svg id="Layer_2" data-name="Layer 2" xmlns="http://www.w3.org/2000/svg" viewBox="0 0 177.08 131.92">
  <defs>
    <style>
      .cls-1 {
        fill: #b3bbbf;
        stroke-width: 0px;
      }
    </style>
  </defs>
  <g id="Layer_3" data-name="Layer 3">
    <path class="cls-1" d="M175.56,62.29L114.8,1.52c-2.02-2.02-5.3-2.03-7.33-.02l-11.65,11.53c-2.05,2.03-2.06,5.33-.02,7.37l32.16,32.16H5.13C2.29,52.57-.01,54.88,0,57.73l.08,16.52c.01,2.83,2.31,5.11,5.13,5.11h122.74l-32.16,32.16c-2.04,2.04-2.03,5.34.02,7.37l11.65,11.53c2.03,2.01,5.31,2,7.33-.02l60.76-60.76c2.03-2.03,2.03-5.32,0-7.35Z"/>
  </g>
</svg>