<svg width="21" height="21" viewBox="0 0 21 21" fill="none" xmlns="http://www.w3.org/2000/svg">
<g clip-path="url(#clip0_240_9)">
<path d="M18.9252 20.7534L20.7569 18.913C21.081 18.5844 21.081 18.0586 20.7569 17.7464L14.1758 11.075C13.8516 10.7464 13.8516 10.2205 14.1758 9.90833L20.7569 3.2534C21.081 2.92477 21.081 2.39894 20.7569 2.08674L18.9252 0.246362C18.601 -0.0658447 18.0985 -0.0658447 17.7743 0.246362L8.22693 9.92477C7.90274 10.2534 7.90274 10.7792 8.22693 11.0914L17.7743 20.7534C18.0985 21.082 18.601 21.082 18.9252 20.7534Z" fill="#B3BBBF"/>
</g>
<g clip-path="url(#clip1_240_9)">
<path d="M2.07481 20.7534L0.243143 18.913C-0.0810466 18.5844 -0.0810466 18.0586 0.243143 17.7464L6.82419 11.075C7.14838 10.7464 7.14838 10.2205 6.82419 9.90833L0.243142 3.2534C-0.0810472 2.92477 -0.0810473 2.39894 0.243142 2.08674L2.07481 0.246362C2.399 -0.0658447 2.9015 -0.0658447 3.22569 0.246362L12.7731 9.92477C13.0973 10.2534 13.0973 10.7792 12.7731 11.0914L3.22569 20.7534C2.9015 21.082 2.399 21.082 2.07481 20.7534Z" fill="#B3BBBF"/>
</g>
<defs>
<clipPath id="clip0_240_9">
<rect width="21" height="13" fill="white" transform="translate(21) rotate(90)"/>
</clipPath>
<clipPath id="clip1_240_9">
<rect width="21" height="13" fill="white" transform="matrix(4.37114e-08 1 1 -4.37114e-08 0 0)"/>
</clipPath>
</defs>
</svg>
