<svg width="24" height="24" viewBox="0 0 24 24" fill="none" xmlns="http://www.w3.org/2000/svg">
<path fill-rule="evenodd" clip-rule="evenodd" d="M10.238 5.538C11.2224 4.5534 12.5577 4.00016 13.95 4H16.65C16.8489 4 17.0397 4.07902 17.1803 4.21967C17.321 4.36032 17.4 4.55109 17.4 4.75V8.35C17.4 8.54891 17.321 8.73968 17.1803 8.88033C17.0397 9.02098 16.8489 9.1 16.65 9.1H13.95C13.9303 9.1 13.9108 9.10388 13.8926 9.11142C13.8744 9.11896 13.8579 9.13 13.8439 9.14393C13.83 9.15786 13.819 9.1744 13.8114 9.1926C13.8039 9.2108 13.8 9.2303 13.8 9.25V11.2H16.65C16.764 11.1999 16.8766 11.2259 16.979 11.2758C17.0815 11.3258 17.1713 11.3985 17.2415 11.4883C17.3117 11.5782 17.3604 11.6828 17.3841 11.7944C17.4078 11.9059 17.4057 12.0214 17.378 12.132L16.478 15.732C16.4374 15.8943 16.3437 16.0384 16.2118 16.1413C16.0799 16.2442 15.9173 16.3001 15.75 16.3H13.8V22.75C13.8 22.9489 13.721 23.1397 13.5803 23.2803C13.4397 23.421 13.2489 23.5 13.05 23.5H9.45C9.25109 23.5 9.06032 23.421 8.91967 23.2803C8.77902 23.1397 8.7 22.9489 8.7 22.75V16.3H6.75C6.55109 16.3 6.36032 16.221 6.21967 16.0803C6.07902 15.9397 6 15.7489 6 15.55V11.95C6 11.8515 6.0194 11.754 6.05709 11.663C6.09478 11.572 6.15003 11.4893 6.21967 11.4197C6.28931 11.35 6.37199 11.2948 6.46299 11.2571C6.55398 11.2194 6.65151 11.2 6.75 11.2H8.7V9.25C8.70016 7.85768 9.2534 6.52244 10.238 5.538ZM13.95 5.5C12.9554 5.5 12.0016 5.89509 11.2983 6.59835C10.5951 7.30161 10.2 8.25544 10.2 9.25V11.95C10.2 12.1489 10.121 12.3397 9.98033 12.4803C9.83968 12.621 9.64891 12.7 9.45 12.7H7.5V14.8H9.45C9.64891 14.8 9.83968 14.879 9.98033 15.0197C10.121 15.1603 10.2 15.3511 10.2 15.55V22H12.3V15.55C12.3 15.3511 12.379 15.1603 12.5197 15.0197C12.6603 14.879 12.8511 14.8 13.05 14.8H15.164L15.689 12.7H13.05C12.8511 12.7 12.6603 12.621 12.5197 12.4803C12.379 12.3397 12.3 12.1489 12.3 11.95V9.25C12.3 8.81239 12.4738 8.39271 12.7833 8.08327C13.0927 7.77384 13.5124 7.6 13.95 7.6H15.9V5.5H13.95Z" fill="white"/>
</svg>
