<svg width="100" height="30" viewBox="0 0 100 30" fill="none" xmlns="http://www.w3.org/2000/svg">
<path d="M32.0609 22.9344V6.25483H37.7719C38.2363 6.25483 38.6928 6.27027 39.1417 6.30116C39.5905 6.3166 40.0316 6.37066 40.465 6.46332C40.8983 6.54054 41.3162 6.66409 41.7186 6.83398C42.1365 7.00386 42.5389 7.2278 42.9258 7.50579C43.483 7.90733 43.9396 8.40154 44.2956 8.98842C44.6515 9.55985 44.9301 10.1699 45.1313 10.8185C45.348 11.4517 45.495 12.1004 45.5724 12.7645C45.6653 13.4131 45.7117 14.0154 45.7117 14.5714C45.7117 15.1274 45.673 15.6911 45.5956 16.2625C45.5337 16.834 45.4254 17.3977 45.2706 17.9537C45.1158 18.4942 44.9069 19.0193 44.6438 19.529C44.3962 20.0232 44.0789 20.4788 43.6919 20.8958C43.305 21.3282 42.8794 21.6757 42.4151 21.9382C41.9662 22.2008 41.4865 22.4093 40.9757 22.5637C40.4804 22.7027 39.962 22.8031 39.4203 22.8649C38.8786 22.9112 38.3291 22.9344 37.7719 22.9344H32.0609ZM33.6395 21.5907H37.4237C38.1357 21.5907 38.8012 21.5521 39.4203 21.4749C40.0548 21.3822 40.6971 21.166 41.3472 20.8263C41.9043 20.5483 42.3609 20.1699 42.7169 19.6911C43.0729 19.2124 43.3515 18.695 43.5527 18.139C43.7693 17.5676 43.9164 16.973 43.9938 16.3552C44.0866 15.7375 44.133 15.1429 44.133 14.5714C44.133 13.9691 44.0944 13.3591 44.017 12.7413C43.9396 12.1081 43.7925 11.5135 43.5759 10.9575C43.3592 10.3861 43.0651 9.86873 42.6937 9.4054C42.3222 8.92664 41.8424 8.53282 41.2543 8.22394C40.759 7.96139 40.1709 7.79151 39.4899 7.71429C38.8089 7.63706 38.1202 7.59845 37.4237 7.59845H33.6395V21.5907Z" fill="white"/>
<path d="M46.7258 22.9344V6.25483H57.8461V7.59845H48.3044V13.6216H56.9175V14.9653H48.3044V21.5907H58.0782V22.9344H46.7258Z" fill="white"/>
<path d="M57.3662 6.25483H59.0145L64.0523 21.0811L69.0669 6.25483H70.7152L64.9113 22.9344H63.1701L57.3662 6.25483Z" fill="white"/>
<path d="M68.4266 22.9344V20.8958H70.1214V22.9344H68.4266Z" fill="white"/>
<path d="M72.3343 6.25483H73.913V16.1931C73.913 18.2625 74.2999 19.7529 75.0738 20.6641C75.8476 21.5753 77.0935 22.0309 78.8115 22.0309C79.7092 22.0309 80.4676 21.9151 81.0866 21.6834C81.7212 21.4363 82.2319 21.0734 82.6189 20.5946C83.0058 20.1004 83.2844 19.4903 83.4546 18.7645C83.6249 18.0386 83.71 17.1815 83.71 16.1931V6.25483H85.2887V16.6564C85.2887 18.834 84.747 20.5019 83.6636 21.6602C82.5957 22.8031 80.9783 23.3745 78.8115 23.3745C76.6292 23.3745 75.0041 22.7876 73.9362 21.6139C72.8683 20.4402 72.3343 18.7876 72.3343 16.6564V6.25483Z" fill="white"/>
<path d="M88.5547 8.3861H88.5082V22.9344H86.9296V6.25483H88.7172L98.3749 20.8263H98.4213V6.25483H100V22.9344H98.166L88.5547 8.3861Z" fill="white"/>
<path d="M27.5107 5.98947L14.5056 0V16.471L27.5107 22.4605V5.98947Z" fill="#D9D9D9"/>
<path d="M0 5.98947L13.005 0V16.471L0 22.4605V5.98947Z" fill="white"/>
<path d="M13.5232 30L26.0016 24.4603L13.5232 18.417L1.04473 24.4603L13.5232 30Z" fill="white"/>
</svg>
